<?xml version="1.0" encoding="UTF-8" standalone="no"?>
<svg width="67px" height="63px" viewBox="0 0 67 63" version="1.1" xmlns="http://www.w3.org/2000/svg" xmlns:xlink="http://www.w3.org/1999/xlink" xmlns:sketch="http://www.bohemiancoding.com/sketch/ns">
    <!-- Generator: Sketch 3.2.2 (9983) - http://www.bohemiancoding.com/sketch -->
    <title>downloadbox</title>
    <desc>Created with Sketch.</desc>
    <defs></defs>
    <g id="Page-1" stroke="none" stroke-width="1" fill="none" fill-rule="evenodd" sketch:type="MSPage">
        <path d="M36.2009849,29.6875 L30.1853599,29.6875 L30.1853599,40.7788086 L24.5081138,35.1015625 L20.2595786,39.3500977 L33.1931724,52.2836914 L46.1643638,39.3500977 L41.878231,35.1015625 L36.2009849,40.7788086 L36.2009849,29.6875 Z M53.7590903,0.8125 L12.6272544,0.8125 L0.107234879,17.8818359 L0.107234879,62.171875 L66.2791099,62.171875 L66.2791099,17.8818359 L53.7590903,0.8125 Z M60.2634849,56.15625 L6.12285988,56.15625 L6.12285988,23.671875 L25.3728599,23.671875 L25.3728599,17.65625 L7.7395591,17.65625 L15.6726646,6.828125 L30.1853599,6.828125 L30.1853599,23.671875 L36.2009849,23.671875 L36.2009849,6.828125 L50.7136802,6.828125 L58.6467857,17.65625 L41.0134849,17.65625 L41.0134849,23.671875 L60.2634849,23.671875 L60.2634849,56.15625 Z" id="downloadbox" fill="#36C07F" sketch:type="MSShapeGroup"></path>
    </g>
</svg>